<svg width="527" height="309" viewBox="0 0 527 309" xmlns="http://www.w3.org/2000/svg">
    <path d="M427.634 266.744c-.892.774-1.36 1.358-2.066 1.761-1.975 1.136-4.123 2.144-6.06 3.302-1.901 1.138-3.59 2.424-5.448 3.594-.585.369-1.403.583-2.127.852-1.892.702-3.75 1.452-5.697 2.077-1.585.51-3.262.893-4.923 1.287-3.285.776-6.552 1.61-9.897 2.24-1.616.305-3.394.162-5.091.291-2.307.174-4.602.45-6.91.614-2.69.193-5.409.205-8.077.49-2.276.246-4.706.512-6.696 1.229-2.836 1.023-5.522 1.838-8.802 1.56-4.235-.357-8.297.429-12.3 1.37-10.79 2.535-21.622 4.991-32.348 7.646-4.3 1.064-8.33 2.619-12.545 3.85-4.21 1.233-8.488 2.357-12.753 3.502-4.088 1.099-8.24 2.095-12.281 3.267-2.141.622-4.195.821-6.472.703-4.517-.23-9.137-.776-13.577-.357-9.426.892-18.973.83-28.316 2.524-5.48.992-10.925.236-16.11-1.091-7.166-1.835-14.47-3.374-22.354-3.65-1.859-.064-3.68-.512-5.473-.863-3.368-.662-6.714-1.3-10.374-1.02-.965.076-2.106-.023-2.938-.309-6.236-2.15-13.136-2.838-20.056-3.522-3.34-.33-6.705-.527-9.817-1.549-1.994-.654-4.485-.683-6.589-1.236-2.778-.726-5.444-1.639-8.071-2.568-1.998-.709-3.902-1.533-5.782-2.367-2.707-1.2-5.477-2.362-8.004-3.708-4.154-2.213-8.081-4.604-12.212-6.836-2.373-1.282-4.937-2.418-7.466-3.576a4.767 4.767 0 0 0-1.932-.41c-2.402.05-3.764-.85-5.048-1.962-.68-.589-1.657-1.03-2.516-1.53-.276-.16-.633-.262-.9-.428-1.91-1.186-3.837-2.362-5.704-3.578-1.979-1.29-4.02-2.551-5.803-3.951-1.48-1.16-2.6-2.516-3.932-3.762-1.377-1.286-2.87-2.518-4.213-3.818-1.62-1.564-3.133-3.174-4.704-4.762-.605-.608-1.116-1.282-1.885-1.79-3.523-2.329-5-5.459-7.405-8.22-.84-.966-1.033-2.175-1.83-3.16-1.979-2.446-4.162-4.82-6.209-7.243-.74-.879-1.326-1.817-1.978-2.729-.182-.254-.236-.602-.535-.762-2.71-1.458-3.572-3.646-4.906-5.608-3.646-5.369-7.245-10.758-10.536-16.229-3.311-5.498-6.16-11.12-9.354-16.653-1.198-2.078-2.084-4.183-2.785-6.365-.398-1.238-1.726-2.4-2.983-3.412C-1.223 175-.654 144.683 1.51 141.354c1.599-2.459 3.846-4.809 3.716-7.505-.193-4.005 1.73-7.817 2.956-11.667 1.521-4.78 3.608-9.516 5.942-14.18 1.848-3.696 4.413-7.259 6.707-10.87 1.046-1.645 2.343-3.235 3.281-4.901 1.269-2.256 2.302-4.561 3.435-6.848.137-.276.237-.562.384-.836 1.056-1.989 2.008-4.001 3.21-5.955 1.641-2.667 2.995-5.479 5.342-7.887 3.558-3.648 6.415-7.6 11.014-10.84 1.594-1.123 2.654-2.505 4.942-3.258.986-.327 1.415-1.335 2.282-1.914 2.725-1.827 5.577-3.575 8.291-5.407.784-.53 1.24-1.261 1.894-1.877 2.74-2.578 5.228-5.293 8.334-7.67 2.374-1.818 5.6-3.162 8.34-4.791 4.668-2.777 10.446-4.378 15.656-6.576 4.174-1.76 8.546-3.315 12.85-4.94 2.652-1.002 5.293-2.025 8.032-2.908 1.153-.37 2.54-.434 3.834-.571 1.437-.155 2.886-.25 4.332-.338 1.116-.068 2.265.011 3.346-.15 1.515-.227 3.042-.528 4.454-.96 1.845-.566 3.6-1.275 5.366-1.953 1.657-.633 3.197-1.435 4.937-1.927 1.585-.45 3.368-.57 5.058-.857 1.722-.292 3.532-.464 5.127-.949 3.523-1.073 7.272-1.882 10.127-3.812.761-.513 2.122-.762 3.263-.909 3.737-.479 7.512-.81 11.245-1.296 1.641-.214 3.068-.743 4.788.052.743.344 2.467-.03 3.662-.272 2.438-.492 4.869-1.039 7.218-1.701a34.083 34.083 0 0 1 12.446-1.15c5.357.486 10.687 1.098 16.073 1.436 2.935.185 5.97.002 8.944-.19 1.012-.065 1.927-.809 2.973-.983 1.77-.291 3.63-.55 5.415-.51 4.072.091 8.122.213 12.166.698 3.105.369 6.493-.06 9.547-1.203 1.556-.585 3.363-.885 5.079-1.263.998-.222 2.098-.255 3.052-.531 2.89-.83 5.836-.875 8.863-.77 1.801.06 3.649-.05 5.454-.219 3.83-.36 7.473-.232 11.216.44 3.815.686 7.917.75 11.859 1.194 3.925.442 7.873.643 11.672 1.687 3.702 1.02 7.994 1.175 11.984 1.808 4.736.753 9.583-.334 14.257.044 3.27.265 6.738 0 9.861 1.076 1.631.562 3.73.62 5.647.801 3.876.37 7.733.79 11.643 1.074 4.06.295 7.9 1.543 11.834 2.38 1.121.237 2.204.64 3.359.712 6.79.425 12.633 2.334 18.451 4.345 2.786.963 5.746 1.726 8.63 2.576.398.116.855.168 1.214.318 6.112 2.557 12.933 4.442 18.056 7.947 1.599 1.095 3.487 2.263 5.62 2.707 2.53.525 4.083 1.612 6.01 2.568 1.772.879 3.272 1.858 4.87 2.825 2.614 1.58 4.61 3.795 8.757 4.206 2.181.217 4.218.908 6.334 1.362.34.071.755.04 1.13.01 4.515-.37 8.188 1.782 8.046 4.771-.097 2.049.561 4.023 2.476 5.515 1.201.937 3.311 1.557 5.215 1.88 2.571.436 3.92 1.318 4.594 3.012 1.319 3.315 2.784 6.538 6.641 9.155 2.944 1.997 6.133 3.922 8.131 6.535 1.294 1.687 3.763 2.958 5.466 4.53 1.59 1.47 2.863 3.09 4.28 4.642 1.07 1.17 2.063 2.375 3.25 3.492.632.59.844 1.006.34 1.759-.334.502-.133 1.429.41 1.823 1.938 1.408 3.088 2.865 3.048 4.907-.023 1.108 1.359 2.205 2.181 3.28.46.603 1.19 1.12 1.585 1.737.973 1.512 2.093 3.014 2.649 4.607.585 1.68.6 3.46.838 5.199.112.828.193 1.66.231 2.494.076 1.619.23 3.24.128 4.86-.122 1.909-.641 3.82-.68 5.727-.027 1.295.527 2.578.72 3.875.11.746.315 1.564-.038 2.252-1.012 1.964-1.566 3.883-1.128 5.948.188.884-.594 1.88-.946 2.825-.295.795-.55 1.599-.917 2.383-.6 1.272-1.208 2.547-1.938 3.792-.85 1.447-.88 2.845-.631 4.36.262 1.586-.436 3.255-.37 4.87.063 1.534.594 3.046.874 4.572.104.556.345 1.182.067 1.678-1.013 1.811-2.243 3.576-3.34 5.37a3.38 3.38 0 0 0-.478 1.377c-.186 1.618-.28 3.24-.454 4.86-.118 1.105-.25 2.212-.492 3.31-.166.757-.324 1.563-.838 2.24-2.288 3.028-4.828 5.983-7.023 9.036-1.207 1.676-2.085 3.47-2.801 5.256-1.26 3.14-2.794 6.203-5.255 9.069-.187.218-.35.496-.645.616-2.046.826-2.093 1.927-1.766 3.308.2.847-.626 1.807-.854 2.728-.214.858-.554 1.78-.29 2.586.54 1.641.03 2.842-1.978 3.997-.776.446-1.48 1.043-1.873 1.655-1.193 1.866-3.013 3.578-3.343 5.664-.095.589-.998 1.137-1.477 1.72-.747.91-1.817 1.798-2.087 2.758-.475 1.676-1.973 2.74-3.934 3.698-.6.294-1.19.655-1.585 1.062-1.199 1.234-2.363 2.484-3.42 3.768-1.113 1.353-2.08 2.755-3.119 4.134-.278.369-.467.811-.903 1.076-2.159 1.309-4.466 2.52-6.56 3.87-1.259.81-2.303 1.78-3.305 2.736-1.66 1.582-3.122 3.252-4.848 4.8-.639.574-1.706 1.105-2.725 1.314-1.514.309-2.63.784-3.456 1.655-.294.31-.722.65-1.207.791-2.544.74-3.764 2.335-5.602 3.53-2.604 1.696-5.288 3.337-7.936 5.004-.14.087-.29.17-.4.27-1.998 1.848-4.46 3.391-7.249 4.727-.178.085-.278.27-.344.421-.445 1.037-1.306 1.711-2.592 1.582" fill="#FFF" fill-rule="evenodd"/>
</svg>
