<svg width="579" height="62" viewBox="0 0 579 62" xmlns="http://www.w3.org/2000/svg" xmlns:xlink="http://www.w3.org/1999/xlink">
    <defs>
        <path id="f91ekb0hha" d="M0 .895h106.3v40.99H0z"/>
        <path id="ttxyrvbcwc" d="M.116.378h37.356V49.09H.116z"/>
        <path id="py8imsc78e" d="M.07.318h28.408v58.296H.07z"/>
    </defs>
    <g fill="none" fill-rule="evenodd">
        <g transform="translate(0 11)">
            <mask id="ghbcf8hdzb" fill="#fff">
                <use xlink:href="#f91ekb0hha"/>
            </mask>
            <path d="M88.203 21.473c-.408-.2-.812-.362-1.182-.587-.504-.308-1.024-.31-1.534-.103-.36.147-.68.394-1.021.591-1.158.668-1.934 1.673-2.533 2.858-.677 1.338-.752 2.759-.624 4.215.054.624.3.76.797.395a30.638 30.638 0 0 0 1.775-1.396c.236-.201.399-.493.593-.745.873-1.138 1.746-2.275 2.62-3.411a.454.454 0 0 1 .132-.12c.633-.353.878-.943.977-1.697M0 33.657c.278-.847.605-1.667 1.008-2.466.383-.764.492-1.67.736-2.508.066-.229.13-.487.278-.656.568-.644.721-1.451.953-2.238.169-.57.398-1.124.648-1.664.375-.813.79-1.608 1.192-2.407.53-1.05 1.09-2.086 1.587-3.153.17-.363.193-.797.28-1.2.043-.194.044-.402.116-.58.424-1.035.716-2.169 1.336-3.067.83-1.204 1.147-2.628 1.884-3.843.46-.758.777-1.559 1.126-2.36.334-.765.956-1.256 1.806-1.236.674.015 2.329 1.01 2.551 1.68.087.256.075.603-.025.855-.543 1.37-1.092 2.74-1.706 4.078-1.017 2.221-1.519 4.647-2.685 6.805-.475.88-.935 1.767-1.387 2.66-.11.219-.168.465-.25.701l.134.125c.657-.42 1.354-.786 1.96-1.273.708-.569 1.326-1.254 2-1.869.718-.656 1.462-1.281 2.186-1.932.721-.648 1.41-1.334 2.152-1.957.74-.623 1.536-1.18 2.292-1.783.274-.219.495-.506.756-.743.586-.534 1.177-1.063 1.772-1.584 1.046-.917 2.096-1.828 3.143-2.742.12-.104.232-.22.353-.324.922-.782 1.837-1.578 2.776-2.34.367-.296.795-.516 1.188-.778.16-.107.309-.231.455-.356.058-.05.082-.146.144-.189.99-.684 1.71-1.667 2.64-2.419.372-.302.807-.466 1.275-.298.91.324 1.808.68 2.71 1.029 1.125.434 2.035 1.222 2.976 1.943.956.733 1.512 1.781 1.894 2.917.19.562-.132 1.034-.417 1.451-.793 1.159-1.174 2.489-1.62 3.791-.46 1.342-.885 2.694-1.327 4.04-.242.74-.475 1.484-.738 2.216-.235.659-.51 1.303-.755 1.959-.086.231-.13.48-.194.72l.111.08c.322-.212.671-.395.964-.644 1.305-1.1 2.596-2.219 3.893-3.329.514-.438 1.028-.876 1.55-1.305.085-.07.21-.137.316-.136.78.024 1.052-.55 1.395-1.112.192-.314.566-.518.871-.753.323-.25.781-.407.968-.73.592-1.027 1.57-1.616 2.387-2.389.73-.688 1.488-1.372 2.455-1.632 1.348-.362 2.232-1.486 3.469-2.009.538-.229 1.077-2.391 1.102-2.465.264-.774 1.007-1.08 1.571-1.464.677-.462 1.13-1.09 1.68-1.644.558-.565 1.075-1.174 1.585-1.785.43-.518.425-.56 1.017-.274.993.483 1.973 1 2.953 1.512.353.185.51.477.399.88l-.86.162c.219.262.368.443.528.633-.066.188-.134.374-.194.561-.168.529.084.948.405 1.3.664.735.5 1.6.404 2.44a39.88 39.88 0 0 1-.502 3.325 28.845 28.845 0 0 1-.78 3.02c-.394 1.242-.87 2.453-1.305 3.68a920.965 920.965 0 0 0-1.826 5.207c-.196.563-.363 1.136-.556 1.75.46.126.85-.1 1.257-.151.08-.01.166-.108.227-.089.788.23 1.476-.091 2.166-.394.298-.13.605-.394.836.095.013.03.06.05.097.063.233.085 3.099-.63 3.321-1.206.849.21 1.584.008 1.916-.552l.393.212c.665-.538 1.732-.405 2.166-1.32-.134-.196.736-1.423 1.142-2.004.622-.896 1.34-1.722 2.006-2.59.143-.185.266-.406.338-.63.178-.553.58-.888 1.02-1.207.768-.558 1.533-1.124 2.29-1.697.398-.3.8-.517 1.312-.297.124.055.27.088.404.085 1.277-.025 2.553-.072 3.831-.087.387-.005.774.095 1.16.095 1.086.002 2.171 0 3.255-.055.434-.022.848-.126 1.269.09.163.082.39.092.575.058a2.38 2.38 0 0 1 1.712.318c1.274.768 2.574 1.513 3.334 2.893.151.276.238.591.403.858.453.725.963 1.414 1.392 2.154.369.636.69 1.305.974 1.985.756 1.81 1.462 3.64 2.222 5.445.303.72.729 1.36 1.458 1.751.52.279 1.002.633 1.483.978.656.472.849 1.198.878 1.949.014.388-.154.785-.26 1.268-.048-.074-.033-.025-.004-.012.242.103.603.107.506.52-.09.372-.403.418-.712.363-.71-.127-1.39-.08-2.108.066-.574.115-1.23.014-1.81-.144-2.088-.562-3.756-1.85-5.03-3.543-.985-1.312-1.671-2.854-2.487-4.297-.528-.933-1.046-1.874-1.634-2.93-.307.38-.613.702-.856 1.069-.632.947-1.224 1.92-1.855 2.87-.33.498-.664 1.004-1.07 1.435-1.2 1.278-2.367 2.577-3.41 3.994-.713.97-1.69 1.52-2.914 1.426-1.217-.093-2.43-.25-3.645-.387a1.226 1.226 0 0 1-.39-.14c-1.003-.517-2.04-.976-2.992-1.575-1.023-.645-1.553-1.694-1.778-2.874-.133-.699-.312-.842-.986-.588-.85.319-1.701.64-2.549.97-1.069.417-2.14.829-3.2 1.27-1.384.576-2.771 1.153-4.134 1.783-.605.278-1.152.69-1.73 1.034-.66.396-1.332.77-1.985 1.178-.667.416-1.338.83-1.967 1.301-.53.397-1.093.41-1.682.295-.542-.106-1.085-.39-1.612-.35-.784.06-1.431-.235-2.091-.525-.82-.36-1.404-.908-1.715-1.847-.385-1.16-.325-2.303-.17-3.443.226-1.644.536-3.278.876-4.9.23-1.09.577-2.154.868-3.231.056-.206.095-.416.142-.625a6.461 6.461 0 0 0-.105-.094c-.184.124-.381.228-.544.373-1.216 1.08-2.415 2.184-3.638 3.257-1.507 1.323-3.047 2.61-4.548 3.94-1.324 1.173-2.615 2.384-3.92 3.58-1.3 1.191-2.622 2.36-3.895 3.584-1.272 1.225-2.49 2.508-3.74 3.755-.21.21-.468.37-.693.563-.18.153-.404.291-.504.491-.207.41-.567.585-.945.644-.555.086-1.133.174-1.632-.261-.137-.12-.368-.214-.543-.193-1.035.118-1.86-.473-2.749-.827-1.39-.555-2.073-1.667-2.005-3.157.061-1.313.234-2.628.43-3.93.163-1.088.382-2.172.662-3.234.556-2.099 1.173-4.182 1.762-6.273.234-.826.476-1.65.687-2.482.055-.217.01-.461.011-.81-.268.195-.466.319-.642.468-1.044.883-2.076 1.779-3.127 2.654-.93.774-1.884 1.519-2.815 2.29-.948.785-1.879 1.59-2.822 2.377-.715.597-1.441 1.18-2.158 1.775-1.878 1.557-3.744 3.13-5.632 4.674-.875.713-1.92 1.1-2.959 1.495-1.053.401-2.162.512-3.26.494-.85-.014-1.8-.4-2.036-1.513-.094-.45-.198-.896-.297-1.344l.001-.36" fill="#000" mask="url(#ghbcf8hdzb)"/>
        </g>
        <path d="M436.205 48.921c.166-.201.282-.51.286-.772a30.85 30.85 0 0 0-.067-2.463c-.058-.898-.156-1.794-.246-2.692a382.416 382.416 0 0 0-.326-3.101c-.013-.12-.077-.24-.069-.354.139-1.837-.655-3.519-.856-5.304-.229-2.029-.646-4.033-.994-6.049a2.812 2.812 0 0 0-.364-.958c-.227.403-.451.807-.678 1.21-1.018 1.815-2.026 3.635-3.056 5.442-1.021 1.792-2.061 3.572-3.099 5.354-.27.461-.596.89-.828 1.369-.41.841-.747 1.72-1.155 2.562-.311.645-.655 1.28-1.04 1.88a4.405 4.405 0 0 1-.884.972c-.263.22-.609.339-.918.5-.19.098-.406.162-.57.293-1.062.837-2.112 1.692-3.17 2.536-.389.31-.78.621-1.183.911-.84.602-3.431 2.042-3.455 1.85-.561.242-.997-.079-1.38-.427-.51-.467-.955-1.01-1.453-1.492a29.526 29.526 0 0 0-1.765-1.602c-1.013-.832-1.59-1.865-1.88-3.166-.275-1.246.535-1.828 1.184-2.548.59-.65 1.203-1.278 1.797-1.924a.828.828 0 0 0 .21-.36c.173-.833.801-1.324 1.364-1.852.19-.18.482-.273.745-.345a2.396 2.396 0 0 0 1.272-.829c.403-.496.886-.922 1.32-1.393 1.042-1.134 2.136-2.203 3.35-3.153.477-.374.812-.927 1.24-1.368a44.845 44.845 0 0 1 1.588-1.542c.958-.897 1.542-2.021 2.006-3.238.231-.61.604-1.165.862-1.768.168-.392.243-.825.364-1.239.166-.576.314-1.158.512-1.722.232-.662.53-1.3.758-1.962.123-.354.233-.739.228-1.107-.013-.925.148-1.797.565-2.617.107-.206.269-.384.354-.504-.011-.532-.105-1.046-.021-1.529.27-1.542.609-3.072.912-4.609.08-.407.276-.683.674-.841.251-.102.475-.287.695-.453.256-.192.492-.407.738-.611 1.618-1.346 2.825-1.2 4.122.489.464.602.972 1.168 1.423 1.779.89 1.207 1.539 2.547 1.803 4.03.487 2.743.927 5.494 1.35 8.247.173 1.13.236 2.275.39 3.409.061.451.27.879.349 1.328.238 1.384.44 2.775.67 4.161.222 1.345.457 2.686.693 4.03.156.888.38 1.77.469 2.665.053.524-.092 1.07-.164 1.604-.035.267-.104.527-.097.793.465-.76.987-1.491 1.383-2.286.535-1.07.92-2.218 1.467-3.282.599-1.165 1.062-2.418 2.003-3.393.287-.298.523-.759.559-1.164.085-.957.58-1.69 1.086-2.424.259-.38.605-.693.879-1.063.222-.3.419-.628.585-.965.336-.68.567-1.424.976-2.053 2.427-3.72 4.896-7.413 7.34-11.122.22-.33.402-.693.555-1.06.236-.556.627-.94 1.094-1.312.502-.403 1.005-.885 1.314-1.443.63-1.142 1.818-.928 2.517-.299.693.621 1.059 1.459 1.348 2.311.251.737.377 1.517.553 2.28.167.725.325 1.45.487 2.175.008.04.03.08.03.117-.045 1.704.892 3.114 1.337 4.67.239.837.346 1.743.34 2.615-.013 2.1-.143 4.199-.199 6.298-.025.92.016 1.843.016 2.764-.002.339-.137.716-.03 1.008.228.628.143 1.242.165 1.877.07 2.004.304 3.998.737 5.964.242 1.094.423 2.203.652 3.3.137.66-.287 1.35-.978 1.586a5.542 5.542 0 0 0-.903.423c-.522.287-1.076.451-1.654.302-.785-.202-1.23-.841-1.183-1.739.098-1.833-.316-3.585-.705-5.349-.129-.573-.08-1.186-.119-1.78-.018-.278-.059-.554-.075-.832-.03-.555-.072-1.11-.069-1.664.003-.902.03-1.803.063-2.705.014-.379.092-.755.106-1.134.024-.619.038-1.238.02-1.855-.028-.943-.09-1.885-.134-2.826-.048-1.013-.22-1.98-.765-2.867-.216-.346-.298-.784-.407-1.19-.121-.455-.328-.897-.801-.945-.478-.05-.794.307-1.066.728-.455.703-1.007 1.339-1.495 2.018-.627.87-1.278 1.73-1.835 2.645a62.199 62.199 0 0 0-2.015 3.615c-.686 1.31-1.275 2.671-1.98 3.968-.937 1.721-1.952 3.4-2.924 5.104a62.743 62.743 0 0 0-1.063 1.953c-.742 1.416-1.433 2.864-2.223 4.253a256.616 256.616 0 0 1-3.857 6.51c-.466.77-1.01 1.48-1.311 2.351-.187.548-.584.63-.951.21-.547-.625-1.278-.989-1.894-1.482-.675-.542-1.44-1.225-1.594-2.242-.023-.153-.081-.298-.123-.447" fill="#000"/>
        <g transform="translate(275)">
            <mask id="9r11ac19qd" fill="#fff">
                <use xlink:href="#ttxyrvbcwc"/>
            </mask>
            <path d="M16.446 39.738c.596.354 1.253.489 1.917.562 1.205.134 2.419-.04 3.632.273 1.549.4 3.061-.028 4.52-.582 1.094-.414 1.614-1.724 1.16-2.824-.23-.555-.61-.889-1.216-1.025-1.794-.404-3.537-.214-5.251.386-.219.077-.413.227-.612.354-.25.16-.47.39-.74.486-1.328.482-2.396 1.344-3.41 2.37m-3.751-7.153c.477-.236.874-.401 1.24-.618 1.282-.764 2.552-1.546 3.825-2.32 1.425-.865 2.83-1.767 4.282-2.583 1.575-.883 3.272-1.468 5.084-1.515 2.224-.056 4.314.522 6.22 1.703 1.079.67 1.772 1.708 2.416 2.776.944 1.571 1.523 3.3 1.678 5.104.111 1.284-.093 2.603-.248 3.895-.049.405-.344.815-.611 1.151-.766.964-1.693 1.764-2.83 2.225-.916.37-1.89.593-2.83.911-.954.323-1.884.721-2.846 1.01-1.875.563-3.761 1.088-5.65 1.596-.78.21-1.577.393-2.375.485-1.099.126-2.206.182-3.312.219-1.62.054-3.243.085-4.865.089-.73.003-1.46-.082-2.19-.132-.526-.036-1.051-.085-1.578-.111-.11-.004-.221.079-.336.104-.42.093-.84.217-1.267.254-.358.03-.592.168-.864.415a19.524 19.524 0 0 1-2.19 1.727c-.471.32-1.516-.032-1.963-.613-.275-.358-.468-.783-.687-1.186-.93-1.716-.776-3.497-.322-5.304.112-.444.136-.911.205-1.367.178-1.145.32-2.3.55-3.437.38-1.87.757-3.742 1.247-5.583.726-2.735 1.6-5.43 2.316-8.167.656-2.503 1.257-5.026 1.74-7.568.237-1.243.42-2.525.231-3.83-.083-.577.109-1.192.131-1.791.022-.556-.015-1.112-.026-1.668-.007-.36-.024-.718-.02-1.076.011-.764-.025-1.534.064-2.287.127-1.056.758-1.852 1.566-2.473.661-.507 1.388-.925 2.086-1.382.183-.12.393-.214.54-.367.743-.77 2.225-.548 2.908.049.702.615 1.447 1.187 1.908 2.033.217.4.432.803.61 1.222.171.405.297.831.441 1.246.04.114.102.225.115.34.197 1.796.41 3.59.174 5.4-.081.616-.064 1.246-.159 1.859-.238 1.543-.458 3.093-.791 4.615-.507 2.311-1.092 4.604-1.663 6.9-.465 1.87-.968 3.73-1.435 5.597-.192.771-.331 1.556-.52 2.453" fill="#000" mask="url(#9r11ac19qd)"/>
        </g>
        <g transform="translate(107 3)">
            <mask id="z1vyqocpef" fill="#fff">
                <use xlink:href="#py8imsc78e"/>
            </mask>
            <path d="m22.095 9.376-.174-.144c-.671.428-1.44.755-1.982 1.314-.52.536-1.085.653-1.727.725-.176.018-.352.015-.528.04-.337.045-.55.265-.569.592-.02.333.024.678.09 1.008.017.082.263.207.348.17 1.081-.45 2.153-.924 3.226-1.397a.465.465 0 0 0 .177-.155c.323-.476.66-.944.95-1.44.119-.204.13-.473.19-.713M8.25 51.405c.92-.415 1.814-.797 2.69-1.224.312-.153.603-.383.855-.63 1.142-1.124 2.307-2.229 3.388-3.414a59.324 59.324 0 0 0 3.041-3.662c.942-1.218.892-2.59.426-4-.521-1.562-1.721-2.327-3.134-2.839-2.034-.734-4.198-.762-6.29-1.184-.42-.084-.83-.216-1.247-.317-.34-.083-.684-.21-1.026-.214a2.241 2.241 0 0 1-1.327-.411c-.048-.034-.097-.074-.15-.096-1.788-.715-2.455-2.433-3.387-3.922-.536-.858-1.15-1.665-1.686-2.523a1.246 1.246 0 0 1-.144-.832c.144-.69.145-1.364-.081-2.017-.162-.467-.128-.91.006-1.355.316-1.053.621-2.111.992-3.145.143-.393.452-.725.69-1.08.099-.149.222-.279.321-.427.727-1.091 1.416-2.21 2.192-3.262.294-.4.806-.624 1.186-.967.337-.302.638-.649.94-.988.62-.695 1.166-1.467 1.85-2.084 2.547-2.3 5.282-4.359 8.092-6.31.307-.213.661-.347.978-.548.58-.368 1.17-.727 1.712-1.15.454-.354.87-.664 1.49-.482.435.129.804-.097 1.133-.374.196-.167.386-.341.573-.519.526-.504 1.21-.6 1.87-.754.497-.116.992-.24 1.492-.344a.933.933 0 0 1 .391.021c.222.05.435.157.657.184.377.048.598.243.578.623-.063 1.144.225 2.308-.176 3.435-.02.056-.025.117-.032.178-.15 1.178-.723 1.813-1.856 2.132-.294.083-.582.25-.821.445-.461.373-.892.786-1.323 1.195-.43.406-.36 1.007.155 1.29.393.216.613-.064.828-.343.193-.247.363-.531.604-.717.343-.265.755-.362 1.153-.079.428.305.714.697.614 1.27-.157.897-.812 2.153-2.068 2.362-.811.135-1.452.594-2.117 1.004-2.577 1.588-4.94 3.479-7.286 5.392-1.348 1.096-2.696 2.197-4.002 3.345-.59.517-1.079 1.152-1.674 1.8.2.115.319.214.453.25.454.125.917.226 1.375.335 1.978.47 3.802 1.38 5.693 2.097 1.392.53 2.604 1.392 3.807 2.264.526.383 1.029.897 1.62 1.063 1.024.289 1.377 1.148 1.914 1.878.13.174.265.352.426.494 1.41 1.247 2.265 2.877 2.859 4.624.447 1.317.675 2.713.982 4.079.051.227.023.478.01.716-.045.714-.083 1.43-.16 2.14-.037.352-.096.725-.245 1.037-.242.501-.304.976-.127 1.507.149.449.163.858-.206 1.278a2.958 2.958 0 0 0-.63 1.236c-.305 1.317-1.2 2.198-2.108 3.043-.997.93-2.06 1.794-3.138 2.628-.904.7-1.922 1.25-2.792 1.988a4.602 4.602 0 0 1-1.791.969c-.178.05-.332.21-.49.326-1.018.752-2.14.95-3.358.679a8.14 8.14 0 0 1-2.955-1.305c-.308-.216-.703-.34-1.076-.413-1.24-.238-2.114-.833-2.666-2.08-.376-.856-.093-1.473.31-2.047.53-.754.743-1.628 1.127-2.433" fill="#000" mask="url(#z1vyqocpef)"/>
        </g>
        <path d="M157.025 35.98c.566.057.996.14 1.427.136 1.01-.012 2.021-.06 3.03-.103.467-.018.53-.126.446-.621-.146-.86-.266-1.725-.437-2.579a60.879 60.879 0 0 0-.636-2.785c-.038-.154-.182-.368-.303-.389-.116-.018-.309.15-.394.285-.292.458-.561.93-.818 1.407-.43.8-.855 1.601-1.26 2.414-.35.698-.668 1.414-1.055 2.236m21.536 10.556-1.277-.692c-.021.017-.076.038-.076.062-.022 1.16-.104 1.278-1.188 1.642-.62.21-1.237.435-1.868.6-.197.05-.487 0-.643-.123-.268-.212-.485-.254-.737-.03-.465.413-.98.678-1.617.651a.971.971 0 0 0-.466.096c-.711.359-1.46.237-2.209.238-.857.003-1.5-.36-2.12-.922-1.064-.97-1.679-2.179-2.06-3.556-.426-1.542-.903-3.07-1.342-4.61-.099-.348-.258-.475-.603-.355-1.4.48-2.857.38-4.3.41-.788.016-1.577-.019-2.366-.029-.456-.005-.792.185-1.026.598-1.007 1.76-2.306 3.294-3.662 4.773-.491.534-1.097 1.058-1.752 1.32-1.943.775-3.342.198-4.664-1.232-.348-.376-.527-1.025-.566-1.566-.059-.839.027-1.697.134-2.536.074-.577.249-1.152.46-1.698.132-.344.367-.679.633-.936 1.304-1.26 2.442-2.658 3.484-4.148.551-.787 1.167-1.528 1.752-2.291.061-.079.13-.162.159-.254.516-1.681 1.628-3.007 2.535-4.452 1.148-1.825 2.31-3.645 3.534-5.418a26.1 26.1 0 0 1 2.383-2.948c.421-.45 1.029-.77 1.61-.998.425-.168.791-.356 1.083-.697.266-.314.585-.457.995-.433.97.056 1.94.071 2.905.154.324.027.683.142.944.334.994.735 1.978 1.49 2.924 2.288.964.815 1.754 1.804 2.483 2.841 1.103 1.566 1.865 3.308 2.422 5.134.668 2.187 1.21 4.415 1.874 6.604.487 1.606 1.095 3.175 1.63 4.767.192.571.351 1.158.485 1.747.16.69.25 1.399.415 2.087.254 1.058.117 2.097-.102 3.132-.032.147-.123.28-.2.446M579 46.446c-.368.026-.882-.062-.974.097-.19.328-.534.506-.68.788-.15.29-.035.719-.036 1.152-.167.036-.437.401-.38.479-.264.41-.496.778-.734 1.14-.043.064-.113.16-.165.157-.511-.036-.672.375-.98.655-.49.444-1.095.828-1.719 1.042-.393.134-.915-.07-1.37-.163-.306-.062-.59-.235-.896-.287-.394-.066-2.442-.247-2.8-.479-1.172-.767-2.396-1.458-3.24-2.673-.397-.572-.908-1.14-1.657-1.408-.456-.163-.902-.463-.915-.936-.302-.17-.54-.277-.746-.426-.242-.174-.462-.38-.682-.581-.255-.235-.647-1.114-.746-1.203-1.008-.905-1.919-1.984-3.067-2.652-1.18-.686-2.068-1.736-3.302-2.306-.472.448-1.021.861-1.432 1.384-.817 1.045-1.946 1.301-3.16 1.447-1.139.137-2.038-.41-2.961-.935a5.234 5.234 0 0 0-.804-.36c-.431-.156-.908-.227-1.298-.449-.402-.23-.824-.538-1.061-.92-.606-.981-1.106-2.027-1.664-3.041-.805-1.461-1.181-3.038-1.313-4.687-.06-.774-.234-1.548-.217-2.32.028-1.232.18-2.463.266-3.695a27.96 27.96 0 0 0 .084-1.97c0-1.114.334-2.07 1.166-2.844.336-.31.595-.704.93-1.012.42-.38.883-.713 1.328-1.063.028-.022.079-.038.111-.03.884.259 1.737-.434 2.646-.07.235.094.603-.007.858-.127.444-.204.83-.215 1.237.06.11.074.26.088.392.13.552.179 1.06.4 1.499.822.511.492 1.095.917 1.673 1.333 1.26.902 2.295 2.032 3.328 3.172.196.218.508.332.767.492.319.196.669.355.95.595.41.348.788.738 1.148 1.138a247.782 247.782 0 0 1 3.457 3.892c.35.404.586.907.933 1.316a107.625 107.625 0 0 0 2.836 3.227c1.011 1.1 2.053 2.17 3.1 3.235.376.383.795.728 1.218 1.06 1.396 1.092 2.817 2.153 4.202 3.261 1.246.996 2.466 2.024 3.676 3.062.407.35.754.766 1.115 1.166.064.069.05.208.079.335M248.56 36.665c.34.866.44 1.011.843 1.039.867.058 1.735.105 2.604.125.219.006 2.186-.105 2.297-.168.676-.386 1.374-.755 1.984-1.235.631-.497 1.362-.743 2.062-1.077.418-.2.88-.35 1.13-.777-.239-.023-.487.026-.63-.077-.657-.471-1.394-.422-2.135-.448-.336-.012-.71-.078-.992-.247-.713-.428-1.389-.231-2.07.02-.725.266-1.445.554-2.158.856-1.1.466-2.112 1.071-2.935 1.99m17.44-1.12c-.047 1.32-.603 2.472-1.033 3.654-.528 1.454-1.292 2.786-2.083 4.108-.627 1.047-1.43 1.922-2.312 2.739-.928.858-2.07 1.244-3.267 1.494-.782.164-1.567.34-2.36.412-.708.064-1.44.072-2.143-.035-1.385-.211-2.751-.55-4.136-.774-.59-.096-1.205-.026-1.807-.05-1.511-.064-2.818-.535-3.747-1.847-.266-.378-.669-.657-1.01-.98-1.113-1.061-1.615-2.411-1.981-3.887-.328-1.324.106-2.542.182-3.81.054-.878.323-1.73.221-2.63-.08-.699 1.088-3.057 1.61-3.519.41-.36.768-.78 1.173-1.15.287-.261.58-.543.923-.707 1.058-.504 1.972-1.205 2.788-2.03.58-.588 1.209-1.039 1.995-1.298.495-.163.942-.47 1.433-.655 1.722-.652 3.5-.679 5.303-.452 1.088.137 2.173.25 3.144.832.989.592 1.79 1.332 2.024 2.546.048.248.163.485.232.732.106.384.36.617.727.693 1.08.22 1.83.925 2.33 1.833.58 1.048 1.038 2.169 1.487 3.284.186.464.21.996.307 1.497M221.98 31.514c.949.339 1.789.645 2.633.939 1.473.511 2.84 1.228 3.947 2.349 1.112 1.125 2.307 2.209 2.924 3.728.452 1.117.632 2.303.44 3.505-.294 1.836-.963 3.554-1.727 5.234-.104.23-.318.406-.481.61-.385.481-.837.926-1.14 1.457-.617 1.083-1.15 2.216-1.726 3.323-.11.214-.27.4-.397.607-.562.906-1.138 1.803-1.674 2.726-.558.956-1.224 1.79-2.153 2.403-.798.526-1.668.695-2.58.56a16.883 16.883 0 0 1-2.397-.522c-1.149-.343-2.234-1.834-2.334-3.044-.156-1.906.428-3.466 1.996-4.603 1.07-.776 2.11-1.596 3.192-2.357.586-.415 1.22-.762 1.844-1.114.881-.498 1.332-1.337 1.675-2.226.28-.733.465-1.51.627-2.28.051-.24-.035-.583-.185-.775-.493-.634-1.13-1.092-1.917-1.285-2.552-.624-4.777-1.915-6.856-3.492-1.171-.885-1.864-2.144-2.472-3.456a.697.697 0 0 1-.08-.291c.024-1.351-.296-2.7-.038-4.056.065-.337.062-.689.144-1.02.098-.409.241-.805.383-1.199.21-.589.42-1.179.662-1.755.192-.457.372-.94.663-1.331.764-1.036 1.605-2.013 2.377-3.042.59-.787 1.123-1.62 1.679-2.431.022-.034.04-.074.07-.098 1.228-1.01 1.764-2.57 2.843-3.695.548-.573 1.206-.907 2.013-.873.02.002.04.01.06.009 1.907-.194 3.024 1.163 4.023 2.398.834 1.031 1.198 2.433 1.053 3.841-.038.373-.313.725-.492 1.078-.163.32-.43.614-.502.952-.387 1.76-1.31 3.184-2.474 4.514-1.072 1.223-2.043 2.538-3.05 3.82-.185.233-.326.504-.572.892M519.727 13.293l.62-.053c.031-.053.842-.11 1.202.02.198.073.527.038.687-.088.353-.281.698-.154 1.024-.062.495.14.97.352 1.445.553.096.04.156.17.226.263.108.143.184.373.323.42.541.18.55.669.726 1.08.194.454.438.892.705 1.308.201.315.232.545-.028.855-.446.53-.967 1.05-1.22 1.672-.298.735-.84 1.219-1.276 1.818-.572.788-1.037 1.67-1.428 2.563-.278.635-.232 1.304.302 1.9 1.106 1.23 2.159 2.51 3.248 3.754.222.254.517.441.765.674.255.24.483.512.746.744.157.138 1.166 1.483 1.492 1.946.152.213.175.52.245.787.043.167.014.381.108.504.712.93.975 2.056 1.365 3.125.473 1.3.851 2.63.919 4.022.091 1.86.16 3.728-.148 5.57a10.91 10.91 0 0 1-.763 2.519c-.533 1.228-1.646 1.764-2.885 1.808-.755.026-1.59-.04-2.28-.517-.049-.033-.123-.09-.158-.075-.551.247-.985-.15-1.472-.252-.118-.027-.267.047-.392.1-.428.184-.555.134-.701-.303-.094-.281-.105-.672-.3-.812-.19-.14-.563-.024-.855-.02-.06.002-.127.015-.18-.004-.483-.187-1.062-.272-1.425-.6-.49-.441-.822-1.065-1.196-1.627-.059-.087.006-.265.027-.398.112-.727.222-1.456.347-2.181.093-.548.216-1.089.303-1.637.076-.471.102-.948.182-1.417.161-.95.314-1.902.525-2.841.295-1.313-.1-2.511-.584-3.68-.14-.339-.516-.608-.835-.838-.745-.536-1.537-1.01-2.28-1.549-1.288-.932-2.3-2.096-2.899-3.597-.118-.294-.324-.553-.44-.85a5.447 5.447 0 0 1-.283-1.02c-.103-.562-.248-1.133-.23-1.695.027-.896.033-1.832.303-2.668.46-1.436 1.11-2.812 1.704-4.203.089-.21.305-.367.468-.542.685-.727 1.36-1.44 1.845-2.348.301-.561.741-1.109 1.4-1.406.385-.172.701-.496 1.006-.722M322.464 26.38c.636-.24 1.143-.22 1.71.236.951.766 1.575.69 2.62.024.753-.481 1.577-.849 2.364-1.279.33-.18.657-.372.964-.592.863-.62 1.718-1.256 2.573-1.888.452-.334.878-.711 1.354-1.001.4-.244.855-.394 1.291-.569.184-.073.395-.078.573-.161.527-.246.989-.2 1.424.216.898.862 1.89 1.636 2.322 2.9.24.702.427 1.384.3 2.153-.204 1.245-1.135 1.839-2.323 1.716-.611-.063-1.227-.234-1.83-.191a3.724 3.724 0 0 0-1.575.48c-.965.565-1.878 1.225-2.798 1.867-.193.136-.447.26-.4.613.012.103-.168.294-.297.345-.34.134-.397.404-.456.72-.192 1.039-.44 2.068-.599 3.114-.071.47.004.964.03 1.446.016.262.128.53.096.782-.174 1.413-.375 2.823-.572 4.234-.112.797-.25 1.59-.347 2.388-.026.21-.003.466.092.647.665 1.258-.141 2.482-.986 2.99-.831.5-1.732.554-2.646.212-.539-.2-1.091-.37-1.615-.607a1.759 1.759 0 0 1-.632-.53c-1.103-1.444-1.82-3.062-1.985-4.906-.047-.506-.024-1.018-.026-1.527 0-1.246-.103-2.505.041-3.732.117-1.004-.3-1.656-.827-2.368-.688-.934-.93-2.052-1.055-3.2-.05-.465-.112-.933-.22-1.387-.13-.556.195-.908.5-1.242.448-.488.96-.912 1.42-1.389M372.98 44.661c-.079-.53-.084-1.071-.145-1.604-.038-.356-.057-.732-.196-1.05a7.305 7.305 0 0 0-.814-1.403c-.479-.64-1.072-1.099-1.963-.82-.145.045-.323-.022-.478 0-.373.05-.744.115-1.113.187-.175.034-.345.132-.521.14-1.652.062-3.301.084-4.86-.614-.18-.082-.396-.181-.573-.15-.565.103-1.068-.087-1.593-.224-1.157-.303-2.362-.427-3.33-1.266-.64-.552-1.338-1.035-2.02-1.535-.151-.281-.356-.642-.352-.677.015-.16.016-.33.075-.475.458-1.099.965-2.827 1.493-4.137 1.755-.012 4.134-.142 5.85-.378 1.052-.144 1.753-1.092 1.684-2.036-.023-.315-.375-.999-.424-1.125-.348-.862-.97-1.611-1.805-2.048a1.466 1.466 0 0 0-.324-.133c-.999-.23-2.098-.052-3.147.026a39.66 39.66 0 0 0-.95.086c.035-1.366-.105-2.73-.545-4.09a3.514 3.514 0 0 1-.034-2.137c.11-.363 3.413-1.288 5.131-1.387a53.337 53.337 0 0 0 3.9-.355c1.632-.213 4.183-2.138 4.238-2.272.174-.417-.034-.732-.115-1.098-.069-.315-.001-.659-.024-.987-.038-.527.046-1.133-.189-1.56-.347-.632-.894-1.178-1.735-1.234-.42-.028-.833-.133-1.253-.17-.64-.056-1.302-.204-1.916-.097-1.679.29-3.343.668-4.997 1.074a2.363 2.363 0 0 0-1.111.654c-.574.58-1.176.886-1.996.697-.159-.036-.356.016-.514.081-1.263.52-2.545 1.006-3.775 1.596-1.267.606-2.404 1.4-2.924 2.81-.089.24-.23.476-.398.67-.312.356-.407.762-.433 1.218-.035.652.04 1.28.169 1.897a9.666 9.666 0 0 0-.177 1.876c.008.978.06 1.958.096 3.027l.16 5.822c-.038.076-.07.157-.1.236-.39 1.06-.543 2.155-.652 3.282a5.645 5.645 0 0 0-.013.937c-.059.145-.138.29-.185.439-.245.78-.52 1.551-.709 2.345-.147.618-.107 1.284-.28 1.892-.245.863.006 1.525.598 2.12.156.156.314.309.475.46.787.741 1.537 1.528 2.37 2.211 1.884 1.545 4.194 2.103 6.51 2.532 2.27.422 4.57.707 6.866.974 1.11.13 2.241.118 3.362.103 1.278-.018 2.42-.555 3.555-1.076.736-.337 1.324-.812 1.493-1.677.047-.236.208-.48.383-.65.278-.275.33-.557.275-.927M493.287 24.85c1.276.111 2.457-.126 3.563-.539.619-.231 1.163-.575 1.732-.877.071-.038.118-.136.12-.206.021-.417.124-.848.01-1.244a3.145 3.145 0 0 0-.732-1.3c-.183-.19-.47-.736-.532-.791-.508-.455-1.038-.897-1.827-1.083-.166-.039-.44-.072-.525-.007-.355.268-.769.54-.956.874-.515.924-.938 1.88-1.378 2.826-.291.63-.566 1.265-.81 1.905-.14.365-.036.436.478.438.29.003.58.002.857.003m.8-11.325c.779-.347.575-.337 1.177.118.39.294.715.638 1.078.954.148.129.296.269.483.359.516.25 1.052.48 1.583.715.436.194.76.44 1.019.786.283.386.736.702 1.116 1.048.134.12.246.257.403.354.99.628 1.558 1.486 2.198 2.293.426.54.767 1.144.965 1.752.29.896.416 1.82.616 2.733.037.166.118.328.14.496.04.286.048.574.072.86.008.123.027.245.034.365.01.167.053.34.011.5-.267 1.027-.67 2-1.705 2.775-.6.45-1.201.837-2.102.876-.846.035-1.694.161-2.536.142-1.508-.034-3.012-.16-4.52-.218-.616-.024-1.236.026-1.855.051-.289.011-.586.089-.864.058-1.02-.115-1.646.323-2.193.852-.392.378-.744.783-1.078 1.193a162.019 162.019 0 0 0-2.642 3.312 5.06 5.06 0 0 0-.602 1.065 24.183 24.183 0 0 0-.825 2.08c-.135.402-.239.831-.2 1.239.097 1.016.091 2.053.602 3.02a2.88 2.88 0 0 0 1.404 1.326c.632.286 1.241.653 2.044.595.6-.043 1.191-.13 1.785-.198 1.166-.135 2.33-.268 3.495-.404.266-.03.555-.029.792-.11.763-.264 1.584-.31 2.369-.221.533.06 1.056.317 1.507.567.287.16.527.309.902.352.776.09.877.21.894.796.046 1.483-1.037 2.513-2.532 3.309-.523.279-1.284.35-1.953.423a45.21 45.21 0 0 1-3.28.233c-.86.032-1.727-.016-2.591-.03-.084 0-.171-.023-.249-.008-1.118.218-2.168-.154-3.254-.205-1.674-.079-3.033-.715-4.444-1.303-1.358-.564-2.413-1.399-3.612-2.106-.377-.223-.642-.564-.913-.876-.872-1.007-1.5-2.08-1.747-3.284-.216-1.048.054-2.06.306-3.06.334-1.334.59-2.687 1.344-3.95.974-1.636 1.922-3.281 2.784-4.95.421-.816.856-1.645.914-2.55.016-.252.238-.517.442-.737.343-.372.707-.719.79-1.191.039-.226.2-.438.289-.662.343-.876.687-1.752 1.018-2.63.433-1.147.854-2.297 1.279-3.443.165-.448.307-.9.5-1.34.116-.261.269-.526.48-.75.33-.35.495-.717.622-1.14.159-.533.517-1.033 1.133-1.405.379-.228.697-.52.996-.81.333-.328 1.413-.633 1.942-.514.157.036.34.111.477.082.775-.16 1.55-.032 2.321-.026.194.001.401.044.578.105.28.097.538.226.793.337" fill="#000"/>
    </g>
</svg>
