<svg width="828" height="639" viewBox="0 0 828 639" xmlns="http://www.w3.org/2000/svg">
    <path d="M753.668 551.616c-1.843 1.602-2.808 2.808-4.268 3.642-4.081 2.348-8.521 4.433-12.522 6.829-3.93 2.352-7.42 5.012-11.258 7.432-1.209.762-2.9 1.206-4.396 1.76-3.91 1.454-7.751 3.004-11.772 4.297-3.275 1.055-6.742 1.845-10.173 2.66-6.79 1.605-13.54 3.33-20.452 4.632-3.34.631-7.013.336-10.52.603-4.767.36-9.51.93-14.277 1.27-5.561.4-11.178.424-16.691 1.015-4.704.507-9.726 1.058-13.839 2.54-5.86 2.116-11.409 3.801-18.187 3.226-8.752-.739-17.145.887-25.419 2.831-22.296 5.244-44.68 10.323-66.843 15.814-8.884 2.2-17.214 5.415-25.922 7.963-8.7 2.548-17.54 4.872-26.353 7.24-8.45 2.272-17.03 4.333-25.38 6.757-4.423 1.286-8.668 1.697-13.371 1.453-9.335-.475-18.881-1.605-28.056-.738-19.48 1.845-39.206 1.717-58.514 5.219-11.322 2.053-22.575.487-33.29-2.256-14.808-3.794-29.9-6.977-46.191-7.548-3.842-.132-7.604-1.058-11.31-1.785-6.96-1.37-13.874-2.687-21.438-2.108-1.994.155-4.352-.048-6.071-.64-12.886-4.448-27.143-5.87-41.444-7.283-6.902-.683-13.855-1.09-20.286-3.203-4.12-1.354-9.266-1.414-13.615-2.556-5.74-1.501-11.25-3.39-16.679-5.31-4.128-1.466-8.062-3.172-11.947-4.897-5.593-2.48-11.318-4.884-16.54-7.667-8.584-4.576-16.698-9.52-25.235-14.137-4.903-2.651-10.2-5-15.427-7.395-1.1-.504-2.649-.875-3.993-.847-4.962.104-7.779-1.757-10.432-4.057-1.404-1.218-3.422-2.133-5.198-3.163-.57-.331-1.308-.543-1.859-.887-3.949-2.452-7.93-4.883-11.788-7.4-4.089-2.667-8.305-5.275-11.991-8.17-3.06-2.4-5.374-5.203-8.126-7.779-2.845-2.66-5.928-5.207-8.705-7.895-3.347-3.234-6.474-6.565-9.722-9.847-1.248-1.258-2.305-2.652-3.893-3.702-7.28-4.816-10.332-11.29-15.303-17-1.735-1.997-2.134-4.497-3.781-6.533-4.09-5.06-8.601-9.968-12.83-14.98-1.532-1.817-2.74-3.757-4.089-5.642-.375-.527-.486-1.246-1.105-1.578-5.6-3.015-7.38-7.54-10.136-11.596-7.536-11.102-14.972-22.248-21.773-33.56-6.842-11.37-12.73-22.999-19.328-34.44-2.478-4.297-4.309-8.65-5.757-13.162-.821-2.56-3.566-4.964-6.163-7.056-12.538-10.088-11.361-72.784-6.89-79.668 3.304-5.084 7.947-9.944 7.68-15.519-.4-8.282 3.574-16.165 6.107-24.128 3.144-9.883 7.456-19.679 12.28-29.323 3.817-7.643 9.119-15.011 13.858-22.479 2.162-3.402 4.843-6.689 6.781-10.135 2.621-4.664 4.756-9.432 7.097-14.16.283-.572.49-1.163.794-1.73 2.182-4.113 4.149-8.274 6.634-12.315 3.39-5.515 6.187-11.33 11.038-16.31 7.352-7.543 13.256-15.717 22.759-22.418 3.295-2.32 5.485-5.18 10.212-6.737 2.039-.675 2.924-2.76 4.715-3.957C-11.292 109.325-5.4 105.71.21 101.92c1.62-1.094 2.561-2.608 3.913-3.881 5.661-5.332 10.803-10.946 17.222-15.862 4.907-3.758 11.573-6.537 17.233-9.908 9.646-5.742 21.586-9.053 32.353-13.597 8.625-3.642 17.66-6.857 26.552-10.215 5.481-2.073 10.939-4.19 16.6-6.014 2.38-.767 5.25-.899 7.922-1.182 2.968-.32 5.964-.515 8.952-.7 2.305-.139 4.679.025 6.913-.31 3.131-.468 6.287-1.09 9.203-1.985 3.814-1.17 7.44-2.636 11.09-4.038 3.423-1.31 6.606-2.967 10.2-3.985 3.276-.93 6.962-1.178 10.452-1.773 3.559-.603 7.3-.959 10.596-1.96 7.28-2.221 15.027-3.894 20.927-7.884 1.572-1.062 4.384-1.577 6.742-1.88 7.723-.991 15.522-1.674 23.237-2.68 3.39-.444 6.339-1.538 9.893.108 1.536.71 5.098-.064 7.568-.564 5.038-1.018 10.06-2.148 14.915-3.518 8.37-2.356 16.903-3.178 25.719-2.376 11.07 1.003 22.084 2.268 33.214 2.967 6.064.384 12.335.004 18.482-.391 2.09-.136 3.981-1.673 6.144-2.033 3.658-.603 7.5-1.138 11.19-1.054 8.413.188 16.782.44 25.14 1.442 6.414.762 13.415-.124 19.726-2.488 3.215-1.21 6.95-1.83 10.496-2.612 2.062-.46 4.336-.527 6.307-1.098C435.082.733 441.17.641 447.424.857c3.722.123 7.54-.1 11.27-.452 7.914-.742 15.442-.479 23.177.91 7.883 1.418 16.36 1.55 24.506 2.469 8.11.914 16.268 1.33 24.119 3.49 7.65 2.108 16.519 2.428 24.765 3.738 9.785 1.557 19.802-.691 29.46.092 6.758.547 13.922 0 20.377 2.224 3.37 1.162 7.707 1.282 11.668 1.657 8.01.763 15.981 1.633 24.06 2.22 8.389.612 16.323 3.191 24.453 4.92 2.318.492 4.556 1.326 6.941 1.474 14.03.878 26.106 4.828 38.13 8.985 5.756 1.993 11.871 3.57 17.831 5.327.822.24 1.767.348 2.51.66 12.63 5.286 26.723 9.184 37.31 16.432 3.304 2.264 7.205 4.68 11.613 5.599 5.23 1.086 8.437 3.334 12.419 5.31 3.662 1.818 6.761 3.842 10.064 5.843 5.402 3.267 9.527 7.847 18.095 8.698 4.508.447 8.717 1.877 13.09 2.815.701.148 1.559.084 2.333.02 9.33-.763 16.922 3.686 16.627 9.868-.2 4.237 1.16 8.318 5.118 11.405 2.481 1.937 6.842 3.218 10.775 3.885 5.314.903 8.102 2.728 9.494 6.23 2.725 6.857 5.753 13.522 13.723 18.933 6.084 4.129 12.674 8.11 16.803 13.513 2.672 3.49 7.775 6.118 11.293 9.369 3.287 3.039 5.916 6.39 8.844 9.6 2.21 2.42 4.265 4.912 6.718 7.22 1.305 1.222 1.743 2.08.702 3.638-.69 1.038-.275 2.955.846 3.77 4.005 2.91 6.383 5.926 6.299 10.147-.048 2.292 2.808 4.56 4.508 6.785.95 1.246 2.457 2.316 3.275 3.59 2.01 3.126 4.324 6.233 5.473 9.528 1.209 3.474 1.24 7.156 1.731 10.75a58.89 58.89 0 0 1 .48 5.16c.155 3.346.474 6.7.262 10.047-.25 3.95-1.324 7.903-1.404 11.844-.056 2.68 1.09 5.331 1.488 8.015.228 1.541.65 3.235-.08 4.656-2.09 4.062-3.235 8.03-2.33 12.3.388 1.829-1.228 3.89-1.954 5.842-.61 1.645-1.137 3.307-1.895 4.928-1.24 2.632-2.497 5.267-4.005 7.843-1.755 2.991-1.82 5.882-1.305 9.017.543 3.279-.901 6.729-.765 10.071.131 3.171 1.228 6.298 1.807 9.453.215 1.15.714 2.444.14 3.47-2.095 3.746-4.636 7.396-6.902 11.106a6.994 6.994 0 0 0-.99 2.847c-.382 3.346-.578 6.7-.937 10.051-.243 2.284-.518 4.573-1.017 6.845-.343 1.565-.67 3.23-1.731 4.632-4.728 6.262-9.977 12.372-14.513 18.685-2.493 3.466-4.309 7.176-5.789 10.87-2.605 6.493-5.772 12.827-10.858 18.753-.387.451-.722 1.026-1.333 1.274-4.228 1.71-4.324 3.985-3.65 6.84.415 1.754-1.292 3.739-1.763 5.643-.443 1.773-1.145 3.682-.598 5.348 1.113 3.394.06 5.878-4.09 8.266-1.603.922-3.06 2.156-3.869 3.422-2.465 3.858-6.227 7.4-6.91 11.713-.195 1.218-2.062 2.352-3.05 3.558-1.545 1.88-3.755 3.718-4.313 5.702-.982 3.467-4.077 5.667-8.13 7.648-1.241.607-2.458 1.354-3.275 2.196-2.478 2.552-4.883 5.136-7.065 7.791-2.302 2.8-4.3 5.699-6.447 8.55-.574.763-.965 1.677-1.867 2.224-4.46 2.708-9.227 5.212-13.555 8.003-2.601 1.677-4.76 3.682-6.83 5.659-3.43 3.27-6.45 6.725-10.017 9.927-1.32 1.186-3.526 2.284-5.632 2.716-3.128.639-5.434 1.621-7.141 3.422-.607.643-1.492 1.346-2.493 1.637-5.258 1.53-7.78 4.828-11.577 7.3-5.382 3.506-10.927 6.9-16.4 10.347-.287.18-.598.352-.826.56-4.128 3.82-9.215 7.012-14.98 9.775-.366.176-.574.56-.71.87-.92 2.145-2.7 3.539-5.357 3.271" fill="#E9B4D2" fill-rule="evenodd"/>
</svg>
