<?xml version="1.0" encoding="UTF-8"?>
<svg width="1089px" height="639px" viewBox="0 0 1089 639" version="1.1" xmlns="http://www.w3.org/2000/svg" xmlns:xlink="http://www.w3.org/1999/xlink">
    <title>Fill 1</title>
    <g id="Page-1" stroke="none" stroke-width="1" fill="none" fill-rule="evenodd">
        <path d="M883.668322,551.616169 C881.825304,553.217516 880.859913,554.423518 879.39986,555.258135 C875.318892,557.606245 870.878894,559.690792 866.87771,562.086822 C862.948332,564.438926 859.457768,567.09852 855.620142,569.518511 C854.411409,570.281247 852.719982,570.724513 851.224025,571.279593 C847.314593,572.733185 843.472978,574.282618 839.451848,575.576475 C836.176701,576.630728 832.710072,577.421418 829.279346,578.236068 C822.4897,579.841409 815.739946,581.566551 808.826634,582.868394 C805.48766,583.499349 801.813592,583.203839 798.307071,583.471395 C793.539957,583.8308 788.796779,584.401854 784.029666,584.741291 C778.468698,585.14063 772.851881,585.16459 767.338785,585.755611 C762.635498,586.262771 757.613075,586.813858 753.500193,588.295403 C747.640034,590.411897 742.091034,592.097105 735.313356,591.522058 C726.561015,590.783282 718.167704,592.408589 709.894069,594.353367 C687.598339,599.596681 665.214847,604.676266 643.050761,610.167169 C634.166776,612.367524 625.837292,615.582198 617.128833,618.129977 C608.428352,620.677757 599.588249,623.001906 590.77607,625.369983 C582.32691,627.642219 573.746105,629.702805 565.396676,632.126789 C560.972635,633.412659 556.728109,633.823978 552.024823,633.580381 C542.690056,633.105168 533.143862,631.975041 523.968664,632.841605 C504.489321,634.686549 484.762646,634.55876 465.454839,638.060958 C454.133443,640.113558 442.879864,638.548151 432.164829,635.804696 C417.356858,632.010981 402.265653,628.828254 385.973693,628.2572 C382.132078,628.125418 378.370247,627.198953 374.664265,626.472157 C367.703082,625.102426 360.78977,623.784609 353.226216,624.36365 C351.231608,624.519392 348.873981,624.31573 347.154629,623.724709 C334.26946,619.276079 320.012001,617.854434 305.710661,616.440776 C298.809316,615.757907 291.856112,615.350582 285.425496,613.238082 C281.304635,611.884324 276.158546,611.824424 271.8103,610.682316 C266.069818,609.180803 260.56071,607.291932 255.131387,605.371115 C251.002548,603.905543 247.069181,602.200368 243.183684,600.475226 C237.590803,597.995334 231.866277,595.591317 226.644393,592.807928 C218.0596,588.231509 209.945534,583.2877 201.408611,578.671347 C196.505864,576.01974 191.208184,573.67163 185.982311,571.2756 C184.881287,570.772433 183.333471,570.401049 181.989106,570.429002 C177.02652,570.53283 174.210134,568.671913 171.557305,566.371724 C170.153101,565.153742 168.134557,564.239257 166.359356,563.208963 C165.788898,562.877513 165.050893,562.665863 164.500381,562.322432 C160.551057,559.870494 156.569819,557.438523 152.712247,554.922691 C148.6233,552.25511 144.406699,549.64743 140.720663,546.752227 C137.660934,544.352203 135.347188,541.548847 132.594629,538.973114 C129.750318,536.31352 126.666654,533.765741 123.890159,531.078194 C120.543207,527.843552 117.415661,524.51307 114.168439,521.230508 C112.919814,519.972592 111.862672,518.578901 110.274964,517.528641 C102.994644,512.712619 99.9428934,506.239343 94.9723299,500.528804 C93.2370208,498.532112 92.8380991,496.032253 91.1905528,493.995627 C87.1016061,488.936009 82.5898024,484.02814 78.3612331,479.016443 C76.829374,477.199453 75.6206415,475.258668 74.2722864,473.373791 C73.8973,472.846664 73.785602,472.127855 73.1672734,471.796404 C67.5664137,468.781399 65.7872232,464.256895 63.0306748,460.199616 C55.4950451,449.098008 48.0591459,437.952472 41.2575321,426.639215 C34.4160261,415.27005 28.5279428,403.641315 21.929779,392.200269 C19.4524756,387.903387 17.6214253,383.550598 16.1733398,379.038074 C15.3515612,376.478315 12.6069804,374.074298 10.0100006,371.981764 C-2.52810633,361.894476 -1.35128751,299.198343 3.12062399,292.313748 C6.4236951,287.23017 11.0671429,282.370221 10.7998654,276.795457 C10.4009438,268.513178 14.3742032,260.630237 16.9073556,252.667429 C20.0508581,242.783803 24.3632009,232.988031 29.1861635,223.344008 C33.0038435,215.700671 38.305512,208.332877 43.044701,200.865248 C45.2068562,197.462885 47.8876096,194.17633 49.8263687,190.730039 C52.4472838,186.065766 54.5815146,181.297665 56.9231846,176.569498 C57.2064189,175.998444 57.4138582,175.407423 57.7170386,174.840363 C59.8991399,170.727177 61.8658236,166.566071 64.3511054,162.524766 C67.7419392,157.009902 70.5383799,151.195535 75.3892669,146.215784 C82.7413926,138.672282 88.6454328,130.497824 98.1477461,123.796925 C101.442839,121.476769 103.632919,118.617506 108.36014,117.060086 C110.398629,116.385204 111.284235,114.300657 113.075394,113.102642 C118.708167,109.324901 124.60024,105.710888 130.209078,101.921166 C131.828699,100.826979 132.770155,99.3134862 134.122499,98.0395966 C139.783197,92.7084286 144.925297,87.0937303 151.343946,82.1778742 C156.250682,78.4200996 162.916662,75.6407042 168.57736,72.2702879 C178.223285,66.5278013 190.16301,63.2172857 200.929905,58.6728144 C209.55459,55.030848 218.590165,51.8161736 227.482129,48.4577375 C232.963312,46.385171 238.42056,44.2686774 244.081258,42.4437007 C246.46282,41.676971 249.331066,41.5451893 252.003841,41.261659 C254.971818,40.9421883 257.96772,40.7465124 260.955643,40.5628167 C263.26141,40.4230483 265.634993,40.5867771 267.868955,40.2513328 C271.000489,39.7841068 274.15596,39.1611389 277.072077,38.2666208 C280.885767,37.0965592 284.511965,35.6309872 288.162098,34.2293093 C291.584846,32.9194793 294.76824,31.2622248 298.362524,30.2439118 C301.637671,29.3134533 305.323707,29.0658634 308.814271,28.4708492 C312.372652,27.8678481 316.114537,27.5124369 319.40963,26.5100975 C326.689949,24.2897758 334.437007,22.6165478 340.337058,18.6271569 C341.90881,17.5649167 344.721207,17.0497702 347.078834,16.746273 C354.801957,15.7559137 362.600875,15.0730449 370.316019,14.0667121 C373.706853,13.6234465 376.654884,12.5292592 380.209276,14.1745335 C381.745124,14.8853559 385.307494,14.1106393 387.776819,13.6114663 C392.815199,12.5931533 397.837622,11.4630256 402.692499,10.0932948 C411.061875,7.73719804 419.594808,6.91456087 428.410976,7.71723111 C439.481052,8.71957057 450.495278,9.98547338 461.625191,10.6843156 C467.6888,11.0676805 473.959848,10.688309 480.107231,10.292964 C482.19758,10.1571889 484.088469,8.61973596 486.250624,8.26033137 C489.908735,7.65733035 493.750351,7.12221686 497.440376,7.20607793 C505.853633,7.39376699 514.223009,7.6453502 522.580417,8.64768965 C528.995077,9.41042604 535.996151,8.52389474 542.307092,6.15981125 C545.5224,4.94981581 549.256306,4.33084125 552.80272,3.54813793 C554.865145,3.08889874 557.138998,3.02101121 559.109671,2.44995726 C565.081528,0.732802022 571.169072,0.640954184 577.424163,0.856596935 C581.146102,0.980391847 584.963782,0.756762328 588.693699,0.405344512 C596.608304,-0.337424963 604.135955,-0.0738616007 611.871046,1.31583613 C619.753737,2.73348754 628.230822,2.86526922 636.376802,3.78374761 C644.486879,4.6982326 652.644826,5.11354457 660.495604,7.27396546 C668.146921,9.38247236 677.014948,9.7019431 685.260659,11.0117731 C695.046206,12.569193 705.063128,10.3209177 714.721021,11.103621 C721.478754,11.6507146 728.643386,11.103621 735.097938,13.327936 C738.468826,14.4900108 742.805104,14.6098124 746.766396,14.9851905 C754.776742,15.7479269 762.747197,16.6184847 770.82536,17.2055121 C779.214682,17.8164999 787.149233,20.3962262 795.279256,22.1253616 C797.59699,22.6165478 799.834941,23.4511651 802.220492,23.5989204 C816.250566,24.4774649 828.325924,28.4269219 840.349422,32.584035 C846.105861,34.5767337 852.221329,36.1541205 858.181219,37.9112096 C859.002997,38.1508126 859.948441,38.258634 860.690436,38.570118 C873.320295,43.8573588 887.414196,47.7549018 898.001576,55.0028943 C901.304647,57.2671432 905.206101,59.6831406 909.614185,60.601619 C914.844047,61.6878195 918.051377,63.9360949 922.032615,65.9128201 C925.694716,67.72981 928.794337,69.7544558 932.097408,71.7551413 C937.498807,75.0217296 941.623657,79.6021414 950.192493,80.4527322 C954.700308,80.8999913 958.908931,82.3296228 963.281112,83.2680682 C963.983214,83.4158234 964.840896,83.3519292 965.614804,83.2880351 C974.94558,82.5252987 982.537059,86.9739288 982.241857,93.1556876 C982.042396,97.3926683 983.402719,101.473907 987.360022,104.560793 C989.841314,106.497584 994.201528,107.779461 998.134895,108.446356 C1003.44853,109.348861 1006.23699,111.173837 1007.62923,114.676035 C1010.35386,121.532676 1013.38168,128.197635 1021.35213,133.60867 C1027.43569,137.73783 1034.02587,141.719234 1038.15471,147.122283 C1040.82749,150.612501 1045.9297,153.240147 1049.44818,156.490762 C1052.7353,159.529728 1055.36419,162.880177 1058.29228,166.090858 C1060.5023,168.510849 1062.55675,171.002721 1065.01012,173.310897 C1066.31459,174.532872 1066.7534,175.39145 1065.71222,176.94887 C1065.02209,177.98715 1065.43696,179.903974 1066.55793,180.718625 C1070.56311,183.629802 1072.94068,186.644807 1072.85691,190.865814 C1072.80904,193.158017 1075.66531,195.426259 1077.36472,197.650574 C1078.31415,198.89651 1079.82208,199.966737 1080.63987,201.240626 C1082.65043,204.367446 1084.96418,207.474299 1086.11307,210.768841 C1087.3218,214.243086 1087.35372,217.924986 1087.84439,221.519032 C1088.07577,223.232193 1088.24331,224.953342 1088.3231,226.678484 C1088.47868,230.02494 1088.79781,233.379383 1088.58639,236.725839 C1088.33507,240.675296 1087.26197,244.628746 1087.18218,248.570217 C1087.12633,251.249778 1088.27124,253.901385 1088.67016,256.584939 C1088.89754,258.126385 1089.3204,259.81958 1088.59038,261.241225 C1086.50003,265.302497 1085.35512,269.271921 1086.26067,273.540849 C1086.64763,275.369819 1085.03199,277.430405 1084.30596,279.38317 C1083.69561,281.028444 1083.16903,282.689692 1082.41108,284.311006 C1081.17043,286.942646 1079.91383,289.57828 1078.40591,292.154013 C1076.65065,295.145057 1076.58682,298.036268 1077.10143,301.171074 C1077.64397,304.449643 1076.19987,307.899927 1076.3355,311.242389 C1076.46715,314.413137 1077.56418,317.539956 1078.14262,320.69473 C1078.35804,321.844825 1078.85669,323.138681 1078.28224,324.164981 C1076.1879,327.910775 1073.64677,331.560729 1071.3809,335.270583 C1070.83038,336.169094 1070.49928,337.159453 1070.39157,338.117866 C1070.00861,341.464322 1069.81313,344.818764 1069.4541,348.169214 C1069.21076,350.45343 1068.93551,352.741639 1068.43685,355.013874 C1068.09378,356.579281 1067.76667,358.244522 1066.70553,359.6462 C1061.97831,365.907827 1056.7285,372.017705 1052.19277,378.331245 C1049.69951,381.797503 1047.88441,385.507357 1046.40441,389.201237 C1043.79945,395.69448 1040.63202,402.027988 1035.54577,407.95417 C1035.15881,408.405422 1034.82372,408.98047 1034.21337,409.228059 C1029.9848,410.937228 1029.88906,413.213457 1030.56323,416.068727 C1030.97811,417.821822 1029.27073,419.806534 1028.8,421.711379 C1028.3572,423.484441 1027.6551,425.393279 1028.20162,427.05852 C1029.31461,430.452897 1028.26146,432.936782 1024.11267,435.324826 C1022.50901,436.247297 1021.05294,437.481253 1020.24313,438.747156 C1017.7778,442.604765 1014.01597,446.146897 1013.33381,450.459752 C1013.13834,451.677734 1011.27138,452.811855 1010.28206,454.017857 C1008.73823,455.898741 1006.52821,457.735698 1005.96972,459.72041 C1004.98837,463.186668 1001.89274,465.387022 997.839693,467.367741 C996.599047,467.974735 995.382336,468.721498 994.564546,469.564102 C992.087243,472.115875 989.681746,474.699594 987.499644,477.355195 C985.197866,480.154557 983.199269,483.053754 981.053071,485.905031 C980.478624,486.667767 980.08768,487.582252 979.186117,488.129346 C974.726174,490.83686 969.95906,493.340712 965.63076,496.132088 C963.029791,497.809309 960.871625,499.813988 958.801222,501.790713 C955.370496,505.061295 952.350659,508.515572 948.7843,511.718267 C947.463869,512.904302 945.257833,514.002482 943.151526,514.433768 C940.023981,515.072709 937.718214,516.055082 936.010829,517.856098 C935.404468,518.499033 934.518862,519.201869 933.517569,519.493386 C928.259782,521.022852 925.738597,524.321387 921.940863,526.793292 C916.55941,530.299484 911.0144,533.69386 905.541195,537.140151 C905.253971,537.319853 904.942812,537.491569 904.715427,537.699225 C900.586588,541.520893 895.500337,544.711608 889.73592,547.475029 C889.368912,547.650738 889.161473,548.034103 889.025839,548.345587 C888.10433,550.490035 886.32514,551.883726 883.668322,551.616169" id="Fill-1" fill="#E9B4D2"></path>
    </g>
</svg>